<svg xmlns="http://www.w3.org/2000/svg" viewBox="0 0 400 300" width="400" height="300">
  
  <defs>
    <linearGradient id="bgGradbodykit-001" x1="0%" y1="0%" x2="100%" y2="100%">
      <stop offset="0%" stop-color="#1a1a2e"/>
      <stop offset="100%" stop-color="#0f0f1a"/>
    </linearGradient>
    <linearGradient id="borderGradbodykit-001" x1="0%" y1="0%" x2="100%" y2="0%">
      <stop offset="0%" stop-color="#ff6b35" stop-opacity="0.3"/>
      <stop offset="50%" stop-color="#ff6b35" stop-opacity="0.8"/>
      <stop offset="100%" stop-color="#ff6b35" stop-opacity="0.3"/>
    </linearGradient>
  </defs>

  <rect width="400" height="300" fill="url(#bgGradbodykit-001)"/>
  <rect x="4" y="4" width="392" height="292" rx="8" ry="8" fill="none" stroke="url(#borderGradbodykit-001)" stroke-width="2"/>

  <g transform="translate(0, -10)">
    <polygon points="50,200 80,80 200,40 320,80 350,200 200,250" fill="#1a1a1a" stroke="#333" stroke-width="2"/>
    <rect x="148.02724374349754" y="150.55560669237013" width="8" height="8" fill="#252525" transform="rotate(19.213328667147415 152.02724374349754 154.55560669237013)" opacity="0.3"/><rect x="234.16914925283587" y="62.57472123484754" width="8" height="8" fill="#252525" transform="rotate(-1.8854514087967402 238.16914925283587 66.57472123484754)" opacity="0.3"/><rect x="321.06595992136465" y="173.30390920053304" width="8" height="8" fill="#252525" transform="rotate(-23.489038696891228 325.06595992136465 177.30390920053304)" opacity="0.3"/><rect x="261.2221017536905" y="42.14323131836962" width="8" height="8" fill="#252525" transform="rotate(0.42674462586600015 265.2221017536905 46.14323131836962)" opacity="0.3"/><rect x="142.35010611119327" y="156.0862271443156" width="8" height="8" fill="#252525" transform="rotate(-23.951920060588257 146.35010611119327 160.0862271443156)" opacity="0.3"/><rect x="169.47780113554506" y="54.29632631877516" width="8" height="8" fill="#252525" transform="rotate(24.10378658829827 173.47780113554506 58.29632631877516)" opacity="0.3"/><rect x="320.05807168224135" y="96.48310789793513" width="8" height="8" fill="#252525" transform="rotate(-20.36022263487553 324.05807168224135 100.48310789793513)" opacity="0.3"/><rect x="162.18010458183858" y="68.4216506665143" width="8" height="8" fill="#252525" transform="rotate(-28.822851710284336 166.18010458183858 72.4216506665143)" opacity="0.3"/><rect x="331.5016607355214" y="107.50519627837659" width="8" height="8" fill="#252525" transform="rotate(1.821879124922134 335.5016607355214 111.50519627837659)" opacity="0.3"/><rect x="60.32677954046356" y="68.74194775436342" width="8" height="8" fill="#252525" transform="rotate(-26.657115418982933 64.32677954046356 72.74194775436342)" opacity="0.3"/><rect x="174.26934727282105" y="129.02352023994956" width="8" height="8" fill="#252525" transform="rotate(22.32001850797576 178.26934727282105 133.02352023994956)" opacity="0.3"/><rect x="166.52953942539938" y="109.56932255174766" width="8" height="8" fill="#252525" transform="rotate(2.543204120703173 170.52953942539938 113.56932255174766)" opacity="0.3"/><rect x="152.11839154480163" y="79.4065352667238" width="8" height="8" fill="#252525" transform="rotate(-3.8269112261157687 156.11839154480163 83.4065352667238)" opacity="0.3"/><rect x="88.21090112862939" y="216.90967734714698" width="8" height="8" fill="#252525" transform="rotate(16.573870335442294 92.21090112862939 220.90967734714698)" opacity="0.3"/><rect x="256.83471867538856" y="80.4732052166417" width="8" height="8" fill="#252525" transform="rotate(13.53095224716219 260.83471867538856 84.4732052166417)" opacity="0.3"/><rect x="294.4794662099173" y="43.46141848917662" width="8" height="8" fill="#252525" transform="rotate(15.943959422182672 298.4794662099173 47.46141848917662)" opacity="0.3"/><rect x="271.48233705005464" y="113.51742625425204" width="8" height="8" fill="#252525" transform="rotate(6.579408688843273 275.48233705005464 117.51742625425204)" opacity="0.3"/><rect x="174.88361300014094" y="238.61583822258848" width="8" height="8" fill="#252525" transform="rotate(24.487184076273905 178.88361300014094 242.61583822258848)" opacity="0.3"/><rect x="293.7986098722792" y="122.9718430969454" width="8" height="8" fill="#252525" transform="rotate(-2.186223538068308 297.7986098722792 126.9718430969454)" opacity="0.3"/><rect x="312.2899978655549" y="112.98821921337337" width="8" height="8" fill="#252525" transform="rotate(17.091854420615633 316.2899978655549 116.98821921337337)" opacity="0.3"/><rect x="68.17338243460799" y="105.85682748615298" width="8" height="8" fill="#252525" transform="rotate(21.672002753617107 72.17338243460799 109.85682748615298)" opacity="0.3"/><rect x="330.60926848384827" y="151.00074405217887" width="8" height="8" fill="#252525" transform="rotate(-3.9005535380948366 334.60926848384827 155.00074405217887)" opacity="0.3"/><rect x="251.72464304425804" y="131.7675175003713" width="8" height="8" fill="#252525" transform="rotate(20.070083665753685 255.72464304425804 135.7675175003713)" opacity="0.3"/><rect x="319.8738514666672" y="221.5890748014239" width="8" height="8" fill="#252525" transform="rotate(-11.662893656262533 323.8738514666672 225.5890748014239)" opacity="0.3"/><rect x="70.66648893173493" y="162.46186144301203" width="8" height="8" fill="#252525" transform="rotate(-19.995277105311274 74.66648893173493 166.46186144301203)" opacity="0.3"/><rect x="258.3765520849191" y="96.73489177252745" width="8" height="8" fill="#252525" transform="rotate(3.9205272450883584 262.3765520849191 100.73489177252745)" opacity="0.3"/><rect x="123.25760278994754" y="223.5169847093418" width="8" height="8" fill="#252525" transform="rotate(25.231055670886995 127.25760278994754 227.5169847093418)" opacity="0.3"/><rect x="254.46542088035494" y="129.67137756953383" width="8" height="8" fill="#252525" transform="rotate(-28.840808208228765 258.46542088035494 133.67137756953383)" opacity="0.3"/><rect x="91.85343668161812" y="183.3126829043573" width="8" height="8" fill="#252525" transform="rotate(-8.28172581758794 95.85343668161812 187.3126829043573)" opacity="0.3"/><rect x="255.71797451774373" y="188.76971009554737" width="8" height="8" fill="#252525" transform="rotate(-3.077885126425606 259.71797451774376 192.76971009554737)" opacity="0.3"/><rect x="302.4956048454823" y="125.43788803753141" width="8" height="8" fill="#252525" transform="rotate(-21.38498359896945 306.4956048454823 129.43788803753142)" opacity="0.3"/><rect x="138.5558067222842" y="44.617200700617154" width="8" height="8" fill="#252525" transform="rotate(2.1515304665158013 142.5558067222842 48.617200700617154)" opacity="0.3"/><rect x="329.14430009917504" y="119.81128929401228" width="8" height="8" fill="#252525" transform="rotate(4.938726573649433 333.14430009917504 123.81128929401228)" opacity="0.3"/><rect x="240.49601354292878" y="80.17305507473745" width="8" height="8" fill="#252525" transform="rotate(26.16324989749667 244.49601354292878 84.17305507473745)" opacity="0.3"/><rect x="305.2498233050619" y="57.99478772855121" width="8" height="8" fill="#252525" transform="rotate(-7.970569106546385 309.2498233050619 61.99478772855121)" opacity="0.3"/><rect x="198.36271841145677" y="45.10072350112809" width="8" height="8" fill="#252525" transform="rotate(-26.92311618534673 202.36271841145677 49.10072350112809)" opacity="0.3"/><rect x="62.306199273546504" y="99.79905831308155" width="8" height="8" fill="#252525" transform="rotate(16.64634350649549 66.3061992735465 103.79905831308155)" opacity="0.3"/><rect x="151.3028095827827" y="217.062594591063" width="8" height="8" fill="#252525" transform="rotate(-15.00577557229198 155.3028095827827 221.062594591063)" opacity="0.3"/><rect x="193.86938737822277" y="153.10557874367294" width="8" height="8" fill="#252525" transform="rotate(-18.508194420303457 197.86938737822277 157.10557874367294)" opacity="0.3"/><rect x="158.45421293298514" y="214.2830918752935" width="8" height="8" fill="#252525" transform="rotate(4.090297721095702 162.45421293298514 218.2830918752935)" opacity="0.3"/>
    <rect x="100" y="120" width="80" height="40" rx="20" ry="20" fill="#0a0a0a" stroke="#333" stroke-width="1"/>
    <rect x="220" y="120" width="80" height="40" rx="20" ry="20" fill="#0a0a0a" stroke="#333" stroke-width="1"/>
    <text x="200" y="195" text-anchor="middle" fill="#ff6b35" font-family="Orbitron, Arial, sans-serif" font-size="14" font-weight="bold" style="text-shadow: 0 0 10px #ff6b3544;">FULL CARBON</text>
  </g>

  <rect x="0" y="258" width="400" height="42" fill="#0d0d15" opacity="0.95"/>
  <line x1="0" y1="258" x2="400" y2="258" stroke="#ff6b35" stroke-width="1" opacity="0.5"/>
  <text x="20" y="278" fill="#8d99ae" font-family="Arial, sans-serif" font-size="10" opacity="0.7">车身套件</text>
  <text x="380" y="278" fill="#8d99ae" font-family="Orbitron, Arial, sans-serif" font-size="10" text-anchor="end" opacity="0.7">XCF-180</text>
  <text x="200" y="283" text-anchor="middle" fill="#e2e2e2" font-family="Orbitron, Arial, sans-serif" font-size="12" font-weight="bold" letter-spacing="1">全包围碳纤维整流罩</text>
  <text x="200" y="296" text-anchor="middle" fill="#ff6b35" font-family="Orbitron, Arial, sans-serif" font-size="8" opacity="0.8">BODYKIT-001</text>
</svg>