<svg xmlns="http://www.w3.org/2000/svg" viewBox="0 0 400 300" width="400" height="300">
  
  <defs>
    <linearGradient id="bgGradbodykit-003" x1="0%" y1="0%" x2="100%" y2="100%">
      <stop offset="0%" stop-color="#1a1a2e"/>
      <stop offset="100%" stop-color="#0f0f1a"/>
    </linearGradient>
    <linearGradient id="borderGradbodykit-003" x1="0%" y1="0%" x2="100%" y2="0%">
      <stop offset="0%" stop-color="#ff6b35" stop-opacity="0.3"/>
      <stop offset="50%" stop-color="#ff6b35" stop-opacity="0.8"/>
      <stop offset="100%" stop-color="#ff6b35" stop-opacity="0.3"/>
    </linearGradient>
  </defs>

  <rect width="400" height="300" fill="url(#bgGradbodykit-003)"/>
  <rect x="4" y="4" width="392" height="292" rx="8" ry="8" fill="none" stroke="url(#borderGradbodykit-003)" stroke-width="2"/>

  <g transform="translate(0, -10)">
    <polygon points="100,80 300,80 280,220 120,220" fill="#1a1a1a" stroke="#444" stroke-width="2"/>
    <rect x="268.1807945247807" y="152.88766004603707" width="8" height="8" fill="#2a2a2a" transform="rotate(4.981441283082958 272.1807945247807 156.88766004603707)" opacity="0.3"/><rect x="130.28792704671716" y="199.83461188129576" width="8" height="8" fill="#2a2a2a" transform="rotate(-10.453923484718523 134.28792704671716 203.83461188129576)" opacity="0.3"/><rect x="104.816398820458" y="150.40114684242894" width="8" height="8" fill="#2a2a2a" transform="rotate(10.43598265429727 108.816398820458 154.40114684242894)" opacity="0.3"/><rect x="159.14309839715906" y="117.13688330340003" width="8" height="8" fill="#2a2a2a" transform="rotate(-29.67869975202256 163.14309839715906 121.13688330340003)" opacity="0.3"/><rect x="121.78362288459907" y="86.45928365038759" width="8" height="8" fill="#2a2a2a" transform="rotate(27.209035622777414 125.78362288459907 90.45928365038759)" opacity="0.3"/><rect x="281.47895563030477" y="178.45113732324418" width="8" height="8" fill="#2a2a2a" transform="rotate(-8.288437743458779 285.47895563030477 182.45113732324418)" opacity="0.3"/><rect x="197.2179583765955" y="189.18002900600038" width="8" height="8" fill="#2a2a2a" transform="rotate(-21.602543867342646 201.2179583765955 193.18002900600038)" opacity="0.3"/><rect x="274.8074010909241" y="82.76615550147208" width="8" height="8" fill="#2a2a2a" transform="rotate(-20.278638986062 278.8074010909241 86.76615550147208)" opacity="0.3"/><rect x="170.57214801772648" y="154.98952945293436" width="8" height="8" fill="#2a2a2a" transform="rotate(-24.945217263678412 174.57214801772648 158.98952945293436)" opacity="0.3"/><rect x="101.01254707531935" y="137.9460027485404" width="8" height="8" fill="#2a2a2a" transform="rotate(-13.110235463679189 105.01254707531935 141.9460027485404)" opacity="0.3"/><rect x="189.09802067355884" y="150.98103468370655" width="8" height="8" fill="#2a2a2a" transform="rotate(-23.253025479598435 193.09802067355884 154.98103468370655)" opacity="0.3"/><rect x="129.14079745741753" y="155.83280668282194" width="8" height="8" fill="#2a2a2a" transform="rotate(-17.72748810351959 133.14079745741753 159.83280668282194)" opacity="0.3"/><rect x="287.6272868623513" y="96.03299012029234" width="8" height="8" fill="#2a2a2a" transform="rotate(6.364055661570212 291.6272868623513 100.03299012029234)" opacity="0.3"/><rect x="232.5035989550874" y="106.97834664274271" width="8" height="8" fill="#2a2a2a" transform="rotate(-18.13719243103682 236.5035989550874 110.97834664274271)" opacity="0.3"/><rect x="222.1124173578698" y="94.50107102069362" width="8" height="8" fill="#2a2a2a" transform="rotate(-7.570338927297261 226.1124173578698 98.50107102069362)" opacity="0.3"/><rect x="281.5324015990973" y="181.68127659995216" width="8" height="8" fill="#2a2a2a" transform="rotate(2.686598669401107 285.5324015990973 185.68127659995216)" opacity="0.3"/><rect x="272.1466090994923" y="133.79654202181996" width="8" height="8" fill="#2a2a2a" transform="rotate(-8.12369709811152 276.1466090994923 137.79654202181996)" opacity="0.3"/><rect x="100.20192733443454" y="143.11692082122585" width="8" height="8" fill="#2a2a2a" transform="rotate(-0.6125950414081345 104.20192733443454 147.11692082122585)" opacity="0.3"/><rect x="240.45116419702396" y="96.6718785794367" width="8" height="8" fill="#2a2a2a" transform="rotate(-8.210601179327561 244.45116419702396 100.6718785794367)" opacity="0.3"/><rect x="110.43906030177835" y="134.78537547074828" width="8" height="8" fill="#2a2a2a" transform="rotate(9.629472258665103 114.43906030177835 138.78537547074828)" opacity="0.3"/><rect x="125.46900114260325" y="170.75648658841982" width="8" height="8" fill="#2a2a2a" transform="rotate(-10.83443817189288 129.46900114260325 174.75648658841982)" opacity="0.3"/><rect x="128.34760265730156" y="132.49719481713868" width="8" height="8" fill="#2a2a2a" transform="rotate(-12.787942659253545 132.34760265730156 136.49719481713868)" opacity="0.3"/><rect x="129.03564056403448" y="198.07551127842333" width="8" height="8" fill="#2a2a2a" transform="rotate(-11.320456261947282 133.03564056403448 202.07551127842333)" opacity="0.3"/><rect x="201.3331956194151" y="142.47832126278715" width="8" height="8" fill="#2a2a2a" transform="rotate(10.98909162142359 205.3331956194151 146.47832126278715)" opacity="0.3"/><rect x="174.3227508006475" y="138.36940688329503" width="8" height="8" fill="#2a2a2a" transform="rotate(-6.51176370033987 178.3227508006475 142.36940688329503)" opacity="0.3"/><rect x="113.27650014204569" y="190.85415591822834" width="8" height="8" fill="#2a2a2a" transform="rotate(-2.8044480181518807 117.27650014204569 194.85415591822834)" opacity="0.3"/><rect x="142.01222443299937" y="201.81415236006052" width="8" height="8" fill="#2a2a2a" transform="rotate(-25.470687630761244 146.01222443299937 205.81415236006052)" opacity="0.3"/><rect x="143.9989982153664" y="155.17984813473794" width="8" height="8" fill="#2a2a2a" transform="rotate(-24.793483797704425 147.9989982153664 159.17984813473794)" opacity="0.3"/><rect x="289.682642612827" y="166.368576809591" width="8" height="8" fill="#2a2a2a" transform="rotate(24.60329346820255 293.682642612827 170.368576809591)" opacity="0.3"/><rect x="205.39637352145306" y="209.524384517291" width="8" height="8" fill="#2a2a2a" transform="rotate(13.421135777304102 209.39637352145306 213.524384517291)" opacity="0.3"/><rect x="264.80421103065174" y="154.6598737307304" width="8" height="8" fill="#2a2a2a" transform="rotate(-0.411857127777143 268.80421103065174 158.6598737307304)" opacity="0.3"/><rect x="261.6999613353846" y="199.94795781461204" width="8" height="8" fill="#2a2a2a" transform="rotate(12.397338181530351 265.6999613353846 203.94795781461204)" opacity="0.3"/><rect x="204.0982712985637" y="110.46328350852497" width="8" height="8" fill="#2a2a2a" transform="rotate(-23.062715544873093 208.0982712985637 114.46328350852497)" opacity="0.3"/><rect x="103.08093731736234" y="156.11638799620084" width="8" height="8" fill="#2a2a2a" transform="rotate(-25.98656771152466 107.08093731736234 160.11638799620084)" opacity="0.3"/><rect x="163.77435030729197" y="116.44095559350548" width="8" height="8" fill="#2a2a2a" transform="rotate(-19.336729664840885 167.77435030729197 120.44095559350548)" opacity="0.3"/><rect x="189.40521525736597" y="150.63442620858103" width="8" height="8" fill="#2a2a2a" transform="rotate(-8.985989090704717 193.40521525736597 154.63442620858103)" opacity="0.3"/><rect x="207.86756401005016" y="189.49865292654067" width="8" height="8" fill="#2a2a2a" transform="rotate(18.09141787999559 211.86756401005016 193.49865292654067)" opacity="0.3"/><rect x="219.43385820448435" y="90.98782195759796" width="8" height="8" fill="#2a2a2a" transform="rotate(-9.916635426532618 223.43385820448435 94.98782195759796)" opacity="0.3"/><rect x="107.018466529881" y="163.5857541706747" width="8" height="8" fill="#2a2a2a" transform="rotate(-5.404659962770985 111.018466529881 167.5857541706747)" opacity="0.3"/><rect x="224.37797786544888" y="194.07470038657777" width="8" height="8" fill="#2a2a2a" transform="rotate(13.930792704473795 228.37797786544888 198.07470038657777)" opacity="0.3"/>
    <rect x="120" y="120" width="160" height="10" rx="6" ry="6" fill="#ff6b35" stroke="#444" stroke-width="1"/>
              <line x1="128" y1="126" x2="128" y2="124" stroke="#444" stroke-width="1"/>
              <line x1="136" y1="126" x2="136" y2="124" stroke="#444" stroke-width="1"/>
              <line x1="144" y1="126" x2="144" y2="124" stroke="#444" stroke-width="1"/>
    <text x="200" y="160" text-anchor="middle" fill="#ff6b35" font-family="Orbitron, Arial, sans-serif" font-size="28" font-weight="bold" style="text-shadow: 0 0 10px #ff6b3544;">XCF</text>
  </g>

  <rect x="0" y="258" width="400" height="42" fill="#0d0d15" opacity="0.95"/>
  <line x1="0" y1="258" x2="400" y2="258" stroke="#ff6b35" stroke-width="1" opacity="0.5"/>
  <text x="20" y="278" fill="#8d99ae" font-family="Arial, sans-serif" font-size="10" opacity="0.7">车身套件</text>
  <text x="380" y="278" fill="#8d99ae" font-family="Orbitron, Arial, sans-serif" font-size="10" text-anchor="end" opacity="0.7">XCF-180</text>
  <text x="200" y="283" text-anchor="middle" fill="#e2e2e2" font-family="Orbitron, Arial, sans-serif" font-size="12" font-weight="bold" letter-spacing="1">油箱保护贴</text>
  <text x="200" y="296" text-anchor="middle" fill="#ff6b35" font-family="Orbitron, Arial, sans-serif" font-size="8" opacity="0.8">BODYKIT-003</text>
</svg>