<svg xmlns="http://www.w3.org/2000/svg" viewBox="0 0 400 300" width="400" height="300">
  
  <defs>
    <linearGradient id="bgGradbrake-003" x1="0%" y1="0%" x2="100%" y2="100%">
      <stop offset="0%" stop-color="#1a1a2e"/>
      <stop offset="100%" stop-color="#0f0f1a"/>
    </linearGradient>
    <linearGradient id="borderGradbrake-003" x1="0%" y1="0%" x2="100%" y2="0%">
      <stop offset="0%" stop-color="#ff6b35" stop-opacity="0.3"/>
      <stop offset="50%" stop-color="#ff6b35" stop-opacity="0.8"/>
      <stop offset="100%" stop-color="#ff6b35" stop-opacity="0.3"/>
    </linearGradient>
  </defs>

  <rect width="400" height="300" fill="url(#bgGradbrake-003)"/>
  <rect x="4" y="4" width="392" height="292" rx="8" ry="8" fill="none" stroke="url(#borderGradbrake-003)" stroke-width="2"/>

  <g transform="translate(0, -10)">
    <g transform="translate(40, 80) rotate(41.185925165709655)">
                <rect x="0" y="-5" width="212.60291625469299" height="10" rx="5" ry="5" fill="#888" stroke="#555" stroke-width="1"/>
                <line x1="0" y1="0" x2="4" y2="10" stroke="#666" stroke-width="1" opacity="0.6"/>
                           <line x1="4" y1="0" x2="0" y2="10" stroke="#aaa" stroke-width="1" opacity="0.6"/><line x1="8" y1="0" x2="12" y2="10" stroke="#666" stroke-width="1" opacity="0.6"/>
                           <line x1="12" y1="0" x2="8" y2="10" stroke="#aaa" stroke-width="1" opacity="0.6"/><line x1="16" y1="0" x2="20" y2="10" stroke="#666" stroke-width="1" opacity="0.6"/>
                           <line x1="20" y1="0" x2="16" y2="10" stroke="#aaa" stroke-width="1" opacity="0.6"/><line x1="24" y1="0" x2="28" y2="10" stroke="#666" stroke-width="1" opacity="0.6"/>
                           <line x1="28" y1="0" x2="24" y2="10" stroke="#aaa" stroke-width="1" opacity="0.6"/><line x1="32" y1="0" x2="36" y2="10" stroke="#666" stroke-width="1" opacity="0.6"/>
                           <line x1="36" y1="0" x2="32" y2="10" stroke="#aaa" stroke-width="1" opacity="0.6"/><line x1="40" y1="0" x2="44" y2="10" stroke="#666" stroke-width="1" opacity="0.6"/>
                           <line x1="44" y1="0" x2="40" y2="10" stroke="#aaa" stroke-width="1" opacity="0.6"/><line x1="48" y1="0" x2="52" y2="10" stroke="#666" stroke-width="1" opacity="0.6"/>
                           <line x1="52" y1="0" x2="48" y2="10" stroke="#aaa" stroke-width="1" opacity="0.6"/><line x1="56" y1="0" x2="60" y2="10" stroke="#666" stroke-width="1" opacity="0.6"/>
                           <line x1="60" y1="0" x2="56" y2="10" stroke="#aaa" stroke-width="1" opacity="0.6"/><line x1="64" y1="0" x2="68" y2="10" stroke="#666" stroke-width="1" opacity="0.6"/>
                           <line x1="68" y1="0" x2="64" y2="10" stroke="#aaa" stroke-width="1" opacity="0.6"/><line x1="72" y1="0" x2="76" y2="10" stroke="#666" stroke-width="1" opacity="0.6"/>
                           <line x1="76" y1="0" x2="72" y2="10" stroke="#aaa" stroke-width="1" opacity="0.6"/><line x1="80" y1="0" x2="84" y2="10" stroke="#666" stroke-width="1" opacity="0.6"/>
                           <line x1="84" y1="0" x2="80" y2="10" stroke="#aaa" stroke-width="1" opacity="0.6"/><line x1="88" y1="0" x2="92" y2="10" stroke="#666" stroke-width="1" opacity="0.6"/>
                           <line x1="92" y1="0" x2="88" y2="10" stroke="#aaa" stroke-width="1" opacity="0.6"/><line x1="96" y1="0" x2="100" y2="10" stroke="#666" stroke-width="1" opacity="0.6"/>
                           <line x1="100" y1="0" x2="96" y2="10" stroke="#aaa" stroke-width="1" opacity="0.6"/><line x1="104" y1="0" x2="108" y2="10" stroke="#666" stroke-width="1" opacity="0.6"/>
                           <line x1="108" y1="0" x2="104" y2="10" stroke="#aaa" stroke-width="1" opacity="0.6"/><line x1="112" y1="0" x2="116" y2="10" stroke="#666" stroke-width="1" opacity="0.6"/>
                           <line x1="116" y1="0" x2="112" y2="10" stroke="#aaa" stroke-width="1" opacity="0.6"/><line x1="120" y1="0" x2="124" y2="10" stroke="#666" stroke-width="1" opacity="0.6"/>
                           <line x1="124" y1="0" x2="120" y2="10" stroke="#aaa" stroke-width="1" opacity="0.6"/><line x1="128" y1="0" x2="132" y2="10" stroke="#666" stroke-width="1" opacity="0.6"/>
                           <line x1="132" y1="0" x2="128" y2="10" stroke="#aaa" stroke-width="1" opacity="0.6"/><line x1="136" y1="0" x2="140" y2="10" stroke="#666" stroke-width="1" opacity="0.6"/>
                           <line x1="140" y1="0" x2="136" y2="10" stroke="#aaa" stroke-width="1" opacity="0.6"/><line x1="144" y1="0" x2="148" y2="10" stroke="#666" stroke-width="1" opacity="0.6"/>
                           <line x1="148" y1="0" x2="144" y2="10" stroke="#aaa" stroke-width="1" opacity="0.6"/><line x1="152" y1="0" x2="156" y2="10" stroke="#666" stroke-width="1" opacity="0.6"/>
                           <line x1="156" y1="0" x2="152" y2="10" stroke="#aaa" stroke-width="1" opacity="0.6"/><line x1="160" y1="0" x2="164" y2="10" stroke="#666" stroke-width="1" opacity="0.6"/>
                           <line x1="164" y1="0" x2="160" y2="10" stroke="#aaa" stroke-width="1" opacity="0.6"/><line x1="168" y1="0" x2="172" y2="10" stroke="#666" stroke-width="1" opacity="0.6"/>
                           <line x1="172" y1="0" x2="168" y2="10" stroke="#aaa" stroke-width="1" opacity="0.6"/><line x1="176" y1="0" x2="180" y2="10" stroke="#666" stroke-width="1" opacity="0.6"/>
                           <line x1="180" y1="0" x2="176" y2="10" stroke="#aaa" stroke-width="1" opacity="0.6"/><line x1="184" y1="0" x2="188" y2="10" stroke="#666" stroke-width="1" opacity="0.6"/>
                           <line x1="188" y1="0" x2="184" y2="10" stroke="#aaa" stroke-width="1" opacity="0.6"/><line x1="192" y1="0" x2="196" y2="10" stroke="#666" stroke-width="1" opacity="0.6"/>
                           <line x1="196" y1="0" x2="192" y2="10" stroke="#aaa" stroke-width="1" opacity="0.6"/><line x1="200" y1="0" x2="204" y2="10" stroke="#666" stroke-width="1" opacity="0.6"/>
                           <line x1="204" y1="0" x2="200" y2="10" stroke="#aaa" stroke-width="1" opacity="0.6"/><line x1="208" y1="0" x2="212" y2="10" stroke="#666" stroke-width="1" opacity="0.6"/>
                           <line x1="212" y1="0" x2="208" y2="10" stroke="#aaa" stroke-width="1" opacity="0.6"/>
              </g>
    <g transform="translate(360, 80) rotate(138.81407483429035)">
                <rect x="0" y="-5" width="212.60291625469299" height="10" rx="5" ry="5" fill="#888" stroke="#555" stroke-width="1"/>
                <line x1="0" y1="0" x2="4" y2="10" stroke="#666" stroke-width="1" opacity="0.6"/>
                           <line x1="4" y1="0" x2="0" y2="10" stroke="#aaa" stroke-width="1" opacity="0.6"/><line x1="8" y1="0" x2="12" y2="10" stroke="#666" stroke-width="1" opacity="0.6"/>
                           <line x1="12" y1="0" x2="8" y2="10" stroke="#aaa" stroke-width="1" opacity="0.6"/><line x1="16" y1="0" x2="20" y2="10" stroke="#666" stroke-width="1" opacity="0.6"/>
                           <line x1="20" y1="0" x2="16" y2="10" stroke="#aaa" stroke-width="1" opacity="0.6"/><line x1="24" y1="0" x2="28" y2="10" stroke="#666" stroke-width="1" opacity="0.6"/>
                           <line x1="28" y1="0" x2="24" y2="10" stroke="#aaa" stroke-width="1" opacity="0.6"/><line x1="32" y1="0" x2="36" y2="10" stroke="#666" stroke-width="1" opacity="0.6"/>
                           <line x1="36" y1="0" x2="32" y2="10" stroke="#aaa" stroke-width="1" opacity="0.6"/><line x1="40" y1="0" x2="44" y2="10" stroke="#666" stroke-width="1" opacity="0.6"/>
                           <line x1="44" y1="0" x2="40" y2="10" stroke="#aaa" stroke-width="1" opacity="0.6"/><line x1="48" y1="0" x2="52" y2="10" stroke="#666" stroke-width="1" opacity="0.6"/>
                           <line x1="52" y1="0" x2="48" y2="10" stroke="#aaa" stroke-width="1" opacity="0.6"/><line x1="56" y1="0" x2="60" y2="10" stroke="#666" stroke-width="1" opacity="0.6"/>
                           <line x1="60" y1="0" x2="56" y2="10" stroke="#aaa" stroke-width="1" opacity="0.6"/><line x1="64" y1="0" x2="68" y2="10" stroke="#666" stroke-width="1" opacity="0.6"/>
                           <line x1="68" y1="0" x2="64" y2="10" stroke="#aaa" stroke-width="1" opacity="0.6"/><line x1="72" y1="0" x2="76" y2="10" stroke="#666" stroke-width="1" opacity="0.6"/>
                           <line x1="76" y1="0" x2="72" y2="10" stroke="#aaa" stroke-width="1" opacity="0.6"/><line x1="80" y1="0" x2="84" y2="10" stroke="#666" stroke-width="1" opacity="0.6"/>
                           <line x1="84" y1="0" x2="80" y2="10" stroke="#aaa" stroke-width="1" opacity="0.6"/><line x1="88" y1="0" x2="92" y2="10" stroke="#666" stroke-width="1" opacity="0.6"/>
                           <line x1="92" y1="0" x2="88" y2="10" stroke="#aaa" stroke-width="1" opacity="0.6"/><line x1="96" y1="0" x2="100" y2="10" stroke="#666" stroke-width="1" opacity="0.6"/>
                           <line x1="100" y1="0" x2="96" y2="10" stroke="#aaa" stroke-width="1" opacity="0.6"/><line x1="104" y1="0" x2="108" y2="10" stroke="#666" stroke-width="1" opacity="0.6"/>
                           <line x1="108" y1="0" x2="104" y2="10" stroke="#aaa" stroke-width="1" opacity="0.6"/><line x1="112" y1="0" x2="116" y2="10" stroke="#666" stroke-width="1" opacity="0.6"/>
                           <line x1="116" y1="0" x2="112" y2="10" stroke="#aaa" stroke-width="1" opacity="0.6"/><line x1="120" y1="0" x2="124" y2="10" stroke="#666" stroke-width="1" opacity="0.6"/>
                           <line x1="124" y1="0" x2="120" y2="10" stroke="#aaa" stroke-width="1" opacity="0.6"/><line x1="128" y1="0" x2="132" y2="10" stroke="#666" stroke-width="1" opacity="0.6"/>
                           <line x1="132" y1="0" x2="128" y2="10" stroke="#aaa" stroke-width="1" opacity="0.6"/><line x1="136" y1="0" x2="140" y2="10" stroke="#666" stroke-width="1" opacity="0.6"/>
                           <line x1="140" y1="0" x2="136" y2="10" stroke="#aaa" stroke-width="1" opacity="0.6"/><line x1="144" y1="0" x2="148" y2="10" stroke="#666" stroke-width="1" opacity="0.6"/>
                           <line x1="148" y1="0" x2="144" y2="10" stroke="#aaa" stroke-width="1" opacity="0.6"/><line x1="152" y1="0" x2="156" y2="10" stroke="#666" stroke-width="1" opacity="0.6"/>
                           <line x1="156" y1="0" x2="152" y2="10" stroke="#aaa" stroke-width="1" opacity="0.6"/><line x1="160" y1="0" x2="164" y2="10" stroke="#666" stroke-width="1" opacity="0.6"/>
                           <line x1="164" y1="0" x2="160" y2="10" stroke="#aaa" stroke-width="1" opacity="0.6"/><line x1="168" y1="0" x2="172" y2="10" stroke="#666" stroke-width="1" opacity="0.6"/>
                           <line x1="172" y1="0" x2="168" y2="10" stroke="#aaa" stroke-width="1" opacity="0.6"/><line x1="176" y1="0" x2="180" y2="10" stroke="#666" stroke-width="1" opacity="0.6"/>
                           <line x1="180" y1="0" x2="176" y2="10" stroke="#aaa" stroke-width="1" opacity="0.6"/><line x1="184" y1="0" x2="188" y2="10" stroke="#666" stroke-width="1" opacity="0.6"/>
                           <line x1="188" y1="0" x2="184" y2="10" stroke="#aaa" stroke-width="1" opacity="0.6"/><line x1="192" y1="0" x2="196" y2="10" stroke="#666" stroke-width="1" opacity="0.6"/>
                           <line x1="196" y1="0" x2="192" y2="10" stroke="#aaa" stroke-width="1" opacity="0.6"/><line x1="200" y1="0" x2="204" y2="10" stroke="#666" stroke-width="1" opacity="0.6"/>
                           <line x1="204" y1="0" x2="200" y2="10" stroke="#aaa" stroke-width="1" opacity="0.6"/><line x1="208" y1="0" x2="212" y2="10" stroke="#666" stroke-width="1" opacity="0.6"/>
                           <line x1="212" y1="0" x2="208" y2="10" stroke="#aaa" stroke-width="1" opacity="0.6"/>
              </g>
    <rect x="30" y="68" width="25" height="25" rx="4" ry="4" fill="#c0c0c0" stroke="#888" stroke-width="2"/>
              <circle cx="42.5" cy="80.5" r="4" fill="#444"/>
    <rect x="350" y="68" width="25" height="25" rx="4" ry="4" fill="#c0c0c0" stroke="#888" stroke-width="2"/>
              <circle cx="362.5" cy="80.5" r="4" fill="#444"/>
    <rect x="188" y="212" width="25" height="25" rx="4" ry="4" fill="#c0c0c0" stroke="#888" stroke-width="2"/>
              <circle cx="200.5" cy="224.5" r="4" fill="#444"/>
    <text x="200" y="30" text-anchor="middle" fill="#ff6b35" font-family="Orbitron, Arial, sans-serif" font-size="12" font-weight="normal" style="text-shadow: 0 0 10px #ff6b3544;">STEEL BRAIDED</text>
  </g>

  <rect x="0" y="258" width="400" height="42" fill="#0d0d15" opacity="0.95"/>
  <line x1="0" y1="258" x2="400" y2="258" stroke="#ff6b35" stroke-width="1" opacity="0.5"/>
  <text x="20" y="278" fill="#8d99ae" font-family="Arial, sans-serif" font-size="10" opacity="0.7">制动系统</text>
  <text x="380" y="278" fill="#8d99ae" font-family="Orbitron, Arial, sans-serif" font-size="10" text-anchor="end" opacity="0.7">XCF-180</text>
  <text x="200" y="283" text-anchor="middle" fill="#e2e2e2" font-family="Orbitron, Arial, sans-serif" font-size="12" font-weight="bold" letter-spacing="1">钢喉刹车油管</text>
  <text x="200" y="296" text-anchor="middle" fill="#ff6b35" font-family="Orbitron, Arial, sans-serif" font-size="8" opacity="0.8">BRAKE-003</text>
</svg>