<svg xmlns="http://www.w3.org/2000/svg" viewBox="0 0 400 300" width="400" height="300">
  
  <defs>
    <linearGradient id="bgGradbrake-001" x1="0%" y1="0%" x2="100%" y2="100%">
      <stop offset="0%" stop-color="#1a1a2e"/>
      <stop offset="100%" stop-color="#0f0f1a"/>
    </linearGradient>
    <linearGradient id="borderGradbrake-001" x1="0%" y1="0%" x2="100%" y2="0%">
      <stop offset="0%" stop-color="#ff6b35" stop-opacity="0.3"/>
      <stop offset="50%" stop-color="#ff6b35" stop-opacity="0.8"/>
      <stop offset="100%" stop-color="#ff6b35" stop-opacity="0.3"/>
    </linearGradient>
  </defs>

  <rect width="400" height="300" fill="url(#bgGradbrake-001)"/>
  <rect x="4" y="4" width="392" height="292" rx="8" ry="8" fill="none" stroke="url(#borderGradbrake-001)" stroke-width="2"/>

  <g transform="translate(0, -10)">
    <polygon points="70,100 330,100 310,200 90,200" fill="#cc2222" stroke="#881111" stroke-width="3" rx="8"/>
    <circle cx="130" cy="150" r="22" fill="#333" stroke="#111" stroke-width="2"/>
    <circle cx="270" cy="150" r="22" fill="#333" stroke="#111" stroke-width="2"/>
    <circle cx="130" cy="150" r="12" fill="#111" />
    <circle cx="270" cy="150" r="12" fill="#111" />
    <rect x="170" y="130" width="60" height="40" rx="4" ry="4" fill="#222"/>
    <text x="200" y="155" text-anchor="middle" fill="#fff" font-family="Orbitron, Arial, sans-serif" font-size="14" font-weight="bold" style="text-shadow: 0 0 10px #fff44;">4POT</text>
  </g>

  <rect x="0" y="258" width="400" height="42" fill="#0d0d15" opacity="0.95"/>
  <line x1="0" y1="258" x2="400" y2="258" stroke="#ff6b35" stroke-width="1" opacity="0.5"/>
  <text x="20" y="278" fill="#8d99ae" font-family="Arial, sans-serif" font-size="10" opacity="0.7">制动系统</text>
  <text x="380" y="278" fill="#8d99ae" font-family="Orbitron, Arial, sans-serif" font-size="10" text-anchor="end" opacity="0.7">XCF-180</text>
  <text x="200" y="283" text-anchor="middle" fill="#e2e2e2" font-family="Orbitron, Arial, sans-serif" font-size="12" font-weight="bold" letter-spacing="1">辐射式对向四活塞卡钳</text>
  <text x="200" y="296" text-anchor="middle" fill="#ff6b35" font-family="Orbitron, Arial, sans-serif" font-size="8" opacity="0.8">BRAKE-001</text>
</svg>