<svg xmlns="http://www.w3.org/2000/svg" viewBox="0 0 400 300" width="400" height="300">
  
  <defs>
    <linearGradient id="bgGradexhaust-002" x1="0%" y1="0%" x2="100%" y2="100%">
      <stop offset="0%" stop-color="#1a1a2e"/>
      <stop offset="100%" stop-color="#0f0f1a"/>
    </linearGradient>
    <linearGradient id="borderGradexhaust-002" x1="0%" y1="0%" x2="100%" y2="0%">
      <stop offset="0%" stop-color="#ff6b35" stop-opacity="0.3"/>
      <stop offset="50%" stop-color="#ff6b35" stop-opacity="0.8"/>
      <stop offset="100%" stop-color="#ff6b35" stop-opacity="0.3"/>
    </linearGradient>
  </defs>

  <rect width="400" height="300" fill="url(#bgGradexhaust-002)"/>
  <rect x="4" y="4" width="392" height="292" rx="8" ry="8" fill="none" stroke="url(#borderGradexhaust-002)" stroke-width="2"/>

  <g transform="translate(0, -10)">
    <rect x="60" y="130" width="240" height="40" rx="20" ry="20" fill="#2a2a2a" stroke="#1a1a1a" stroke-width="2"/>
    <rect x="97.7619956639464" y="135.52217647580028" width="8" height="8" fill="#333" transform="rotate(-18.95988346981669 101.7619956639464 139.52217647580028)" opacity="0.3"/><rect x="78.60945923300034" y="132.1380859460784" width="8" height="8" fill="#333" transform="rotate(27.200059514173994 82.60945923300034 136.1380859460784)" opacity="0.3"/><rect x="76.26849524528721" y="147.439002209922" width="8" height="8" fill="#333" transform="rotate(-29.789954251165263 80.26849524528721 151.439002209922)" opacity="0.3"/><rect x="175.39317824980347" y="134.1418193806109" width="8" height="8" fill="#333" transform="rotate(8.789305872916046 179.39317824980347 138.1418193806109)" opacity="0.3"/><rect x="218.38388789544345" y="140.9924052285786" width="8" height="8" fill="#333" transform="rotate(13.576500390102737 222.38388789544345 144.9924052285786)" opacity="0.3"/><rect x="265.0355672931286" y="134.27244594809335" width="8" height="8" fill="#333" transform="rotate(-10.38752619378586 269.0355672931286 138.27244594809335)" opacity="0.3"/><rect x="218.79920588554833" y="150.7397854083313" width="8" height="8" fill="#333" transform="rotate(4.900600299816993 222.79920588554833 154.7397854083313)" opacity="0.3"/><rect x="119.47803756694856" y="153.43656325458653" width="8" height="8" fill="#333" transform="rotate(-19.446182303464607 123.47803756694856 157.43656325458653)" opacity="0.3"/><rect x="267.0313896304622" y="137.08218323575704" width="8" height="8" fill="#333" transform="rotate(-29.123812790773535 271.0313896304622 141.08218323575704)" opacity="0.3"/><rect x="110.56710563093259" y="151.32546980950679" width="8" height="8" fill="#333" transform="rotate(21.900975576496613 114.56710563093259 155.32546980950679)" opacity="0.3"/><rect x="102.69374773985993" y="143.6734134846572" width="8" height="8" fill="#333" transform="rotate(23.453806021168802 106.69374773985993 147.6734134846572)" opacity="0.3"/><rect x="173.85967777302136" y="133.55024523399285" width="8" height="8" fill="#333" transform="rotate(26.914212018672373 177.85967777302136 137.55024523399285)" opacity="0.3"/><rect x="127.79997001348451" y="141.45955507291853" width="8" height="8" fill="#333" transform="rotate(5.39665275416386 131.7999700134845 145.45955507291853)" opacity="0.3"/><rect x="223.6919031605923" y="141.36919468907942" width="8" height="8" fill="#333" transform="rotate(-28.915265847294 227.6919031605923 145.36919468907942)" opacity="0.3"/><rect x="280.3158199695141" y="153.4586795286188" width="8" height="8" fill="#333" transform="rotate(0.22074753155204974 284.3158199695141 157.4586795286188)" opacity="0.3"/><rect x="191.7698879564203" y="140.94858161008133" width="8" height="8" fill="#333" transform="rotate(-22.503041171532857 195.7698879564203 144.94858161008133)" opacity="0.3"/><rect x="203.56072889261006" y="133.27851274703642" width="8" height="8" fill="#333" transform="rotate(3.035989052618717 207.56072889261006 137.27851274703642)" opacity="0.3"/><rect x="202.30235081569367" y="142.81756699041273" width="8" height="8" fill="#333" transform="rotate(-10.451040554269106 206.30235081569367 146.81756699041273)" opacity="0.3"/><rect x="203.03114114511104" y="145.33567061451276" width="8" height="8" fill="#333" transform="rotate(11.977906347036217 207.03114114511104 149.33567061451276)" opacity="0.3"/><rect x="92.25146249509682" y="135.49273756518156" width="8" height="8" fill="#333" transform="rotate(3.1294834719225193 96.25146249509682 139.49273756518156)" opacity="0.3"/><rect x="101.488673361776" y="155.9092324745282" width="8" height="8" fill="#333" transform="rotate(18.095821684016265 105.488673361776 159.9092324745282)" opacity="0.3"/><rect x="240.7036393848448" y="157.13023697616904" width="8" height="8" fill="#333" transform="rotate(-15.7095212138859 244.7036393848448 161.13023697616904)" opacity="0.3"/><rect x="185.80171330063231" y="141.81120692112717" width="8" height="8" fill="#333" transform="rotate(16.261240328069476 189.80171330063231 145.81120692112717)" opacity="0.3"/><rect x="206.6793540263089" y="136.4597618007553" width="8" height="8" fill="#333" transform="rotate(-19.5071860235183 210.6793540263089 140.4597618007553)" opacity="0.3"/><rect x="196.16125060150284" y="146.53743939020802" width="8" height="8" fill="#333" transform="rotate(29.07664704910693 200.16125060150284 150.53743939020802)" opacity="0.3"/><rect x="90.97907602140572" y="145.56851513700855" width="8" height="8" fill="#333" transform="rotate(18.063879637639822 94.97907602140572 149.56851513700855)" opacity="0.3"/><rect x="68.128552222221" y="133.04330539752695" width="8" height="8" fill="#333" transform="rotate(8.592500957600812 72.128552222221 137.04330539752695)" opacity="0.3"/><rect x="286.7402098712554" y="149.92410283928143" width="8" height="8" fill="#333" transform="rotate(24.25140875772243 290.7402098712554 153.92410283928143)" opacity="0.3"/><rect x="275.3567583884367" y="135.183852235287" width="8" height="8" fill="#333" transform="rotate(17.23156241817839 279.3567583884367 139.183852235287)" opacity="0.3"/><rect x="240.4222012513768" y="135.38658085237427" width="8" height="8" fill="#333" transform="rotate(-14.27802336781391 244.4222012513768 139.38658085237427)" opacity="0.3"/><rect x="67.42733743545305" y="157.70165319371486" width="8" height="8" fill="#333" transform="rotate(-8.059775408372257 71.42733743545305 161.70165319371486)" opacity="0.3"/><rect x="177.02609616394028" y="153.45082554620737" width="8" height="8" fill="#333" transform="rotate(5.776847535056618 181.02609616394028 157.45082554620737)" opacity="0.3"/><rect x="78.95199925379968" y="152.4218232590953" width="8" height="8" fill="#333" transform="rotate(-9.624180887777204 82.95199925379968 156.4218232590953)" opacity="0.3"/><rect x="109.62962030533168" y="157.39151429991475" width="8" height="8" fill="#333" transform="rotate(12.542927871025285 113.62962030533168 161.39151429991475)" opacity="0.3"/><rect x="203.19271987749374" y="143.81845607043786" width="8" height="8" fill="#333" transform="rotate(12.40752245720963 207.19271987749374 147.81845607043786)" opacity="0.3"/><rect x="260.9173938766234" y="152.3422569124284" width="8" height="8" fill="#333" transform="rotate(19.532652114942415 264.9173938766234 156.3422569124284)" opacity="0.3"/><rect x="207.3687221349806" y="134.24616691769867" width="8" height="8" fill="#333" transform="rotate(-17.25493159984824 211.3687221349806 138.24616691769867)" opacity="0.3"/><rect x="245.54337959731924" y="150.34489989480497" width="8" height="8" fill="#333" transform="rotate(17.70549529912097 249.54337959731924 154.34489989480497)" opacity="0.3"/><rect x="126.86146139709277" y="145.4947710854118" width="8" height="8" fill="#333" transform="rotate(-20.071135347909646 130.86146139709277 149.4947710854118)" opacity="0.3"/><rect x="166.30636265926563" y="149.45603243120834" width="8" height="8" fill="#333" transform="rotate(27.178360027342876 170.30636265926563 153.45603243120834)" opacity="0.3"/>
    <rect x="280" y="140" width="60" height="20" rx="10" ry="10" fill="#555" stroke="#333" stroke-width="2"/>
    <text x="180" y="155" text-anchor="middle" fill="#ff6b35" font-family="Orbitron, Arial, sans-serif" font-size="12" font-weight="normal" style="text-shadow: 0 0 10px #ff6b3544;">CARBON</text>
  </g>

  <rect x="0" y="258" width="400" height="42" fill="#0d0d15" opacity="0.95"/>
  <line x1="0" y1="258" x2="400" y2="258" stroke="#ff6b35" stroke-width="1" opacity="0.5"/>
  <text x="20" y="278" fill="#8d99ae" font-family="Arial, sans-serif" font-size="10" opacity="0.7">排气系统</text>
  <text x="380" y="278" fill="#8d99ae" font-family="Orbitron, Arial, sans-serif" font-size="10" text-anchor="end" opacity="0.7">XCF-180</text>
  <text x="200" y="283" text-anchor="middle" fill="#e2e2e2" font-family="Orbitron, Arial, sans-serif" font-size="12" font-weight="bold" letter-spacing="1">碳纤维尾段排气</text>
  <text x="200" y="296" text-anchor="middle" fill="#ff6b35" font-family="Orbitron, Arial, sans-serif" font-size="8" opacity="0.8">EXHAUST-002</text>
</svg>