<svg xmlns="http://www.w3.org/2000/svg" viewBox="0 0 400 300" width="400" height="300">
  
  <defs>
    <linearGradient id="bgGradhandlebar-001" x1="0%" y1="0%" x2="100%" y2="100%">
      <stop offset="0%" stop-color="#1a1a2e"/>
      <stop offset="100%" stop-color="#0f0f1a"/>
    </linearGradient>
    <linearGradient id="borderGradhandlebar-001" x1="0%" y1="0%" x2="100%" y2="0%">
      <stop offset="0%" stop-color="#ff6b35" stop-opacity="0.3"/>
      <stop offset="50%" stop-color="#ff6b35" stop-opacity="0.8"/>
      <stop offset="100%" stop-color="#ff6b35" stop-opacity="0.3"/>
    </linearGradient>
  </defs>

  <rect width="400" height="300" fill="url(#bgGradhandlebar-001)"/>
  <rect x="4" y="4" width="392" height="292" rx="8" ry="8" fill="none" stroke="url(#borderGradhandlebar-001)" stroke-width="2"/>

  <g transform="translate(0, -10)">
    <g transform="translate(50, 100) rotate(21.80140948635181)">
                <rect x="0" y="-5" width="107.70329614269008" height="10" rx="2" ry="2" fill="#444"  stroke="none" stroke-width="2"/>
              </g>
    <g transform="translate(250, 140) rotate(-21.80140948635181)">
                <rect x="0" y="-5" width="107.70329614269008" height="10" rx="2" ry="2" fill="#444"  stroke="none" stroke-width="2"/>
              </g>
    <rect x="170" y="130" width="60" height="40" rx="4" ry="4" fill="#666" stroke="#444" stroke-width="2"/>
              <circle cx="185" cy="150" r="5" fill="#333"/>
              <circle cx="215" cy="150" r="5" fill="#333"/>
    <rect x="30" y="88" width="40" height="24" rx="6" ry="6" fill="#222" stroke="#444" stroke-width="1"/>
              <line x1="38" y1="94" x2="38" y2="106" stroke="#444" stroke-width="1"/>
              <line x1="46" y1="94" x2="46" y2="106" stroke="#444" stroke-width="1"/>
              <line x1="54" y1="94" x2="54" y2="106" stroke="#444" stroke-width="1"/>
    <rect x="330" y="88" width="40" height="24" rx="6" ry="6" fill="#222" stroke="#444" stroke-width="1"/>
              <line x1="338" y1="94" x2="338" y2="106" stroke="#444" stroke-width="1"/>
              <line x1="346" y1="94" x2="346" y2="106" stroke="#444" stroke-width="1"/>
              <line x1="354" y1="94" x2="354" y2="106" stroke="#444" stroke-width="1"/>
    <rect x="185" y="175" width="30" height="15" rx="4" ry="4" fill="#ff6b35"/>
              <text x="200" y="187" text-anchor="middle" fill="#fff" font-family="Arial" font-size="9">ADJ</text>
  </g>

  <rect x="0" y="258" width="400" height="42" fill="#0d0d15" opacity="0.95"/>
  <line x1="0" y1="258" x2="400" y2="258" stroke="#ff6b35" stroke-width="1" opacity="0.5"/>
  <text x="20" y="278" fill="#8d99ae" font-family="Arial, sans-serif" font-size="10" opacity="0.7">把手控制</text>
  <text x="380" y="278" fill="#8d99ae" font-family="Orbitron, Arial, sans-serif" font-size="10" text-anchor="end" opacity="0.7">XCF-180</text>
  <text x="200" y="283" text-anchor="middle" fill="#e2e2e2" font-family="Orbitron, Arial, sans-serif" font-size="12" font-weight="bold" letter-spacing="1">可调节分离式把手</text>
  <text x="200" y="296" text-anchor="middle" fill="#ff6b35" font-family="Orbitron, Arial, sans-serif" font-size="8" opacity="0.8">HANDLEBAR-001</text>
</svg>