<svg xmlns="http://www.w3.org/2000/svg" viewBox="0 0 400 300" width="400" height="300">
  
  <defs>
    <linearGradient id="bgGradwheels-002" x1="0%" y1="0%" x2="100%" y2="100%">
      <stop offset="0%" stop-color="#1a1a2e"/>
      <stop offset="100%" stop-color="#0f0f1a"/>
    </linearGradient>
    <linearGradient id="borderGradwheels-002" x1="0%" y1="0%" x2="100%" y2="0%">
      <stop offset="0%" stop-color="#ff6b35" stop-opacity="0.3"/>
      <stop offset="50%" stop-color="#ff6b35" stop-opacity="0.8"/>
      <stop offset="100%" stop-color="#ff6b35" stop-opacity="0.3"/>
    </linearGradient>
  </defs>

  <rect width="400" height="300" fill="url(#bgGradwheels-002)"/>
  <rect x="4" y="4" width="392" height="292" rx="8" ry="8" fill="none" stroke="url(#borderGradwheels-002)" stroke-width="2"/>

  <g transform="translate(0, -10)">
    <circle cx="200" cy="150" r="115" fill="#1a1a1a" stroke="#0a0a0a" stroke-width="2"/>
              <circle cx="200" cy="150" r="80" fill="#1a1a2e"/>
    <line x1="285" y1="150" x2="310" y2="150" stroke="#2a2a2a" stroke-width="3" opacity="0.5"/><line x1="283.3667488342746" y1="166.5826773713709" x2="307.88638084435536" y2="171.4599354217741" stroke="#2a2a2a" stroke-width="3" opacity="0.5"/><line x1="278.52976026345937" y1="182.52809175103263" x2="301.62674857624154" y2="192.09517756015987" stroke="#2a2a2a" stroke-width="3" opacity="0.5"/><line x1="270.67491704571637" y1="197.22346980666617" x2="291.46165735328" y2="211.11272563215624" stroke="#2a2a2a" stroke-width="3" opacity="0.5"/><line x1="260.10407640085657" y1="210.10407640085654" x2="277.78174593052023" y2="227.78174593052023" stroke="#2a2a2a" stroke-width="3" opacity="0.5"/><line x1="247.2234698066662" y1="220.67491704571634" x2="261.11272563215624" y2="241.46165735327997" stroke="#2a2a2a" stroke-width="3" opacity="0.5"/><line x1="232.52809175103263" y1="228.52976026345937" x2="242.09517756015987" y2="251.62674857624154" stroke="#2a2a2a" stroke-width="3" opacity="0.5"/><line x1="216.58267737137092" y1="233.36674883427457" x2="221.4599354217741" y2="257.88638084435536" stroke="#2a2a2a" stroke-width="3" opacity="0.5"/><line x1="200" y1="235" x2="200" y2="260" stroke="#2a2a2a" stroke-width="3" opacity="0.5"/><line x1="183.4173226286291" y1="233.3667488342746" x2="178.54006457822592" y2="257.88638084435536" stroke="#2a2a2a" stroke-width="3" opacity="0.5"/><line x1="167.47190824896737" y1="228.52976026345937" x2="157.90482243984013" y2="251.62674857624154" stroke="#2a2a2a" stroke-width="3" opacity="0.5"/><line x1="152.7765301933338" y1="220.67491704571634" x2="138.88727436784376" y2="241.46165735327997" stroke="#2a2a2a" stroke-width="3" opacity="0.5"/><line x1="139.89592359914346" y1="210.10407640085654" x2="122.21825406947978" y2="227.78174593052023" stroke="#2a2a2a" stroke-width="3" opacity="0.5"/><line x1="129.32508295428363" y1="197.22346980666617" x2="108.53834264672001" y2="211.11272563215624" stroke="#2a2a2a" stroke-width="3" opacity="0.5"/><line x1="121.47023973654063" y1="182.52809175103263" x2="98.37325142375846" y2="192.0951775601599" stroke="#2a2a2a" stroke-width="3" opacity="0.5"/><line x1="116.63325116572541" y1="166.5826773713709" x2="92.11361915564466" y2="171.4599354217741" stroke="#2a2a2a" stroke-width="3" opacity="0.5"/><line x1="115" y1="150" x2="90" y2="150" stroke="#2a2a2a" stroke-width="3" opacity="0.5"/><line x1="116.6332511657254" y1="133.41732262862914" x2="92.11361915564464" y2="128.54006457822592" stroke="#2a2a2a" stroke-width="3" opacity="0.5"/><line x1="121.4702397365406" y1="117.47190824896742" x2="98.37325142375843" y2="107.90482243984019" stroke="#2a2a2a" stroke-width="3" opacity="0.5"/><line x1="129.32508295428366" y1="102.7765301933338" x2="108.53834264672003" y2="88.88727436784376" stroke="#2a2a2a" stroke-width="3" opacity="0.5"/><line x1="139.89592359914343" y1="89.89592359914346" x2="122.21825406947976" y2="72.21825406947978" stroke="#2a2a2a" stroke-width="3" opacity="0.5"/><line x1="152.77653019333374" y1="79.32508295428369" x2="138.88727436784367" y2="58.53834264672007" stroke="#2a2a2a" stroke-width="3" opacity="0.5"/><line x1="167.4719082489674" y1="71.47023973654062" x2="157.90482243984016" y2="48.37325142375845" stroke="#2a2a2a" stroke-width="3" opacity="0.5"/><line x1="183.41732262862905" y1="66.63325116572543" x2="178.54006457822584" y2="42.11361915564467" stroke="#2a2a2a" stroke-width="3" opacity="0.5"/><line x1="199.99999999999997" y1="65" x2="199.99999999999997" y2="40" stroke="#2a2a2a" stroke-width="3" opacity="0.5"/><line x1="216.5826773713709" y1="66.63325116572541" x2="221.4599354217741" y2="42.113619155644656" stroke="#2a2a2a" stroke-width="3" opacity="0.5"/><line x1="232.52809175103266" y1="71.47023973654063" x2="242.0951775601599" y2="48.373251423758475" stroke="#2a2a2a" stroke-width="3" opacity="0.5"/><line x1="247.22346980666617" y1="79.32508295428363" x2="261.1127256321562" y2="58.53834264672" stroke="#2a2a2a" stroke-width="3" opacity="0.5"/><line x1="260.1040764008565" y1="89.89592359914344" x2="277.7817459305202" y2="72.21825406947976" stroke="#2a2a2a" stroke-width="3" opacity="0.5"/><line x1="270.67491704571637" y1="102.77653019333381" x2="291.46165735328" y2="88.88727436784376" stroke="#2a2a2a" stroke-width="3" opacity="0.5"/><line x1="278.52976026345937" y1="117.4719082489674" x2="301.62674857624154" y2="107.90482243984015" stroke="#2a2a2a" stroke-width="3" opacity="0.5"/><line x1="283.3667488342746" y1="133.41732262862905" x2="307.88638084435536" y2="128.54006457822584" stroke="#2a2a2a" stroke-width="3" opacity="0.5"/>
    <circle cx="200" cy="150" r="78" fill="#555" stroke="#333" stroke-width="2"/>
              <circle cx="200" cy="150" r="72" fill="#1a1a2e"/>
    <text x="200" y="155" text-anchor="middle" fill="#ff6b35" font-family="Orbitron, Arial, sans-serif" font-size="16" font-weight="normal" style="text-shadow: 0 0 10px #ff6b3544;">SPORT</text>
  </g>

  <rect x="0" y="258" width="400" height="42" fill="#0d0d15" opacity="0.95"/>
  <line x1="0" y1="258" x2="400" y2="258" stroke="#ff6b35" stroke-width="1" opacity="0.5"/>
  <text x="20" y="278" fill="#8d99ae" font-family="Arial, sans-serif" font-size="10" opacity="0.7">轮毂轮胎</text>
  <text x="380" y="278" fill="#8d99ae" font-family="Orbitron, Arial, sans-serif" font-size="10" text-anchor="end" opacity="0.7">XCF-180</text>
  <text x="200" y="283" text-anchor="middle" fill="#e2e2e2" font-family="Orbitron, Arial, sans-serif" font-size="12" font-weight="bold" letter-spacing="1">高性能运动轮胎</text>
  <text x="200" y="296" text-anchor="middle" fill="#ff6b35" font-family="Orbitron, Arial, sans-serif" font-size="8" opacity="0.8">WHEELS-002</text>
</svg>