<svg xmlns="http://www.w3.org/2000/svg" viewBox="0 0 400 300" width="400" height="300">
  
  <defs>
    <linearGradient id="bgGradwheels-003" x1="0%" y1="0%" x2="100%" y2="100%">
      <stop offset="0%" stop-color="#1a1a2e"/>
      <stop offset="100%" stop-color="#0f0f1a"/>
    </linearGradient>
    <linearGradient id="borderGradwheels-003" x1="0%" y1="0%" x2="100%" y2="0%">
      <stop offset="0%" stop-color="#ff6b35" stop-opacity="0.3"/>
      <stop offset="50%" stop-color="#ff6b35" stop-opacity="0.8"/>
      <stop offset="100%" stop-color="#ff6b35" stop-opacity="0.3"/>
    </linearGradient>
  </defs>

  <rect width="400" height="300" fill="url(#bgGradwheels-003)"/>
  <rect x="4" y="4" width="392" height="292" rx="8" ry="8" fill="none" stroke="url(#borderGradwheels-003)" stroke-width="2"/>

  <g transform="translate(0, -10)">
    <circle cx="200" cy="150" r="90" fill="#1e1e1e" stroke="#111" stroke-width="2"/>
    <rect x="183.99704378939143" y="139.87306157761554" width="8" height="8" fill="#282828" transform="rotate(-5.732575565399788 187.99704378939143 143.87306157761554)" opacity="0.4"/><rect x="234.70726443998214" y="130.59114779852288" width="8" height="8" fill="#282828" transform="rotate(-27.216571910379802 238.70726443998214 134.59114779852288)" opacity="0.4"/><rect x="202.1953367383663" y="179.6845809118243" width="8" height="8" fill="#282828" transform="rotate(-28.416258954922068 206.1953367383663 183.6845809118243)" opacity="0.4"/><rect x="194.04282678703592" y="156.06364798226303" width="8" height="8" fill="#282828" transform="rotate(-24.653431603943567 198.04282678703592 160.06364798226303)" opacity="0.4"/><rect x="185.4681716893997" y="184.76852359238478" width="8" height="8" fill="#282828" transform="rotate(-5.6976507983438225 189.4681716893997 188.76852359238478)" opacity="0.4"/><rect x="187.878827962692" y="139.6248946120152" width="8" height="8" fill="#282828" transform="rotate(15.163611014495508 191.878827962692 143.6248946120152)" opacity="0.4"/><rect x="201.46997630709058" y="133.07265216035157" width="8" height="8" fill="#282828" transform="rotate(9.417009384846537 205.46997630709058 137.07265216035157)" opacity="0.4"/><rect x="140.26480128447741" y="185.53788414536945" width="8" height="8" fill="#282828" transform="rotate(18.006543804430834 144.26480128447741 189.53788414536945)" opacity="0.4"/><rect x="159.3838129351129" y="196.3296763522873" width="8" height="8" fill="#282828" transform="rotate(2.7358182786977494 163.3838129351129 200.3296763522873)" opacity="0.4"/><rect x="171.6625388130459" y="211.86277926942319" width="8" height="8" fill="#282828" transform="rotate(9.086265979184901 175.6625388130459 215.86277926942319)" opacity="0.4"/><rect x="208.0206542321906" y="191.7289136835749" width="8" height="8" fill="#282828" transform="rotate(24.132802124265325 212.0206542321906 195.7289136835749)" opacity="0.4"/><rect x="137.1687919820093" y="108.29903324679901" width="8" height="8" fill="#282828" transform="rotate(-19.576167815869802 141.1687919820093 112.29903324679901)" opacity="0.4"/><rect x="217.89185091637327" y="161.05876134512056" width="8" height="8" fill="#282828" transform="rotate(25.261406724648566 221.89185091637327 165.05876134512056)" opacity="0.4"/><rect x="225.0238447929039" y="151.96746207889498" width="8" height="8" fill="#282828" transform="rotate(24.22820489001704 229.0238447929039 155.96746207889498)" opacity="0.4"/><rect x="237.69358172487102" y="114.44362727812668" width="8" height="8" fill="#282828" transform="rotate(18.37483049507727 241.69358172487102 118.44362727812668)" opacity="0.4"/><rect x="247.95563946089155" y="117.89343194389272" width="8" height="8" fill="#282828" transform="rotate(-29.272247597807684 251.95563946089155 121.89343194389272)" opacity="0.4"/><rect x="129.98656422218374" y="125.600627643427" width="8" height="8" fill="#282828" transform="rotate(28.897437464162927 133.98656422218374 129.600627643427)" opacity="0.4"/><rect x="204.570822818895" y="187.2631769776215" width="8" height="8" fill="#282828" transform="rotate(10.501013283639288 208.570822818895 191.2631769776215)" opacity="0.4"/><rect x="220.15118208091124" y="101.31060280890512" width="8" height="8" fill="#282828" transform="rotate(-13.974285974200605 224.15118208091124 105.31060280890512)" opacity="0.4"/><rect x="211.93581726213444" y="167.2715017939471" width="8" height="8" fill="#282828" transform="rotate(-10.543819909225597 215.93581726213444 171.2715017939471)" opacity="0.4"/><rect x="149.94446856264847" y="162.62857148866317" width="8" height="8" fill="#282828" transform="rotate(29.97041832312413 153.94446856264847 166.62857148866317)" opacity="0.4"/><rect x="174.12218383917445" y="107.49164166128611" width="8" height="8" fill="#282828" transform="rotate(-17.25632390177074 178.12218383917445 111.49164166128611)" opacity="0.4"/><rect x="225.12849125989047" y="206.95814561181194" width="8" height="8" fill="#282828" transform="rotate(20.239299410700717 229.12849125989047 210.95814561181194)" opacity="0.4"/><rect x="148.75988546056527" y="149.5242933808446" width="8" height="8" fill="#282828" transform="rotate(-6.110376052889247 152.75988546056527 153.5242933808446)" opacity="0.4"/><rect x="184.72797552271925" y="211.5272837432266" width="8" height="8" fill="#282828" transform="rotate(6.892604873395115 188.72797552271925 215.5272837432266)" opacity="0.4"/><rect x="175.03276442859288" y="191.7533508782136" width="8" height="8" fill="#282828" transform="rotate(28.002140629085304 179.03276442859288 195.7533508782136)" opacity="0.4"/><rect x="243.86219493498118" y="175.5566656299314" width="8" height="8" fill="#282828" transform="rotate(-7.947593182050397 247.86219493498118 179.5566656299314)" opacity="0.4"/><rect x="178.23077988837977" y="159.63353664496222" width="8" height="8" fill="#282828" transform="rotate(28.32147236942867 182.23077988837977 163.63353664496222)" opacity="0.4"/><rect x="247.74473163835583" y="153.88799402859732" width="8" height="8" fill="#282828" transform="rotate(-27.73513811762158 251.74473163835583 157.88799402859732)" opacity="0.4"/><rect x="249.78472669183037" y="170.26110393127775" width="8" height="8" fill="#282828" transform="rotate(3.3582785360497454 253.78472669183037 174.26110393127775)" opacity="0.4"/><rect x="181.3525655646747" y="184.1294821575854" width="8" height="8" fill="#282828" transform="rotate(-26.281515756485017 185.3525655646747 188.1294821575854)" opacity="0.4"/><rect x="206.97858996418773" y="136.78112655080918" width="8" height="8" fill="#282828" transform="rotate(24.39500672482864 210.97858996418773 140.78112655080918)" opacity="0.4"/><rect x="181.85143101917532" y="123.26913403799722" width="8" height="8" fill="#282828" transform="rotate(9.205472598669232 185.85143101917532 127.26913403799722)" opacity="0.4"/><rect x="210.97846842625233" y="116.63331559726076" width="8" height="8" fill="#282828" transform="rotate(5.10634780300466 214.97846842625233 120.63331559726076)" opacity="0.4"/><rect x="190.42445518414186" y="190.5981638813313" width="8" height="8" fill="#282828" transform="rotate(-26.320496691525168 194.42445518414186 194.5981638813313)" opacity="0.4"/><rect x="185.08721286394473" y="148.18736546369215" width="8" height="8" fill="#282828" transform="rotate(-29.457433340488507 189.08721286394473 152.18736546369215)" opacity="0.4"/><rect x="222.16592372184988" y="78.87598308241566" width="8" height="8" fill="#282828" transform="rotate(18.074783784027424 226.16592372184988 82.87598308241566)" opacity="0.4"/><rect x="192.758271250124" y="161.7025355316473" width="8" height="8" fill="#282828" transform="rotate(21.880779011928794 196.758271250124 165.7025355316473)" opacity="0.4"/><rect x="192.2204240258895" y="151.4997281684315" width="8" height="8" fill="#282828" transform="rotate(-12.105295624154337 196.2204240258895 155.4997281684315)" opacity="0.4"/><rect x="165.70961614365447" y="184.82283126140027" width="8" height="8" fill="#282828" transform="rotate(15.235821447981763 169.70961614365447 188.82283126140027)" opacity="0.4"/><rect x="187.96031081416163" y="177.1900132999585" width="8" height="8" fill="#282828" transform="rotate(-11.272384484660453 191.96031081416163 181.1900132999585)" opacity="0.4"/><rect x="190.0461306013552" y="158.81594460653585" width="8" height="8" fill="#282828" transform="rotate(10.681899700966305 194.0461306013552 162.81594460653585)" opacity="0.4"/><rect x="205.33754575003397" y="177.6550263077058" width="8" height="8" fill="#282828" transform="rotate(1.2180223279459845 209.33754575003397 181.6550263077058)" opacity="0.4"/><rect x="195.69075541997765" y="141.4695918289638" width="8" height="8" fill="#282828" transform="rotate(16.853266625087038 199.69075541997765 145.4695918289638)" opacity="0.4"/><rect x="197.67906917754527" y="139.72862481409913" width="8" height="8" fill="#282828" transform="rotate(-7.005023416728285 201.67906917754527 143.72862481409913)" opacity="0.4"/><rect x="158.48014470340198" y="162.43196497267485" width="8" height="8" fill="#282828" transform="rotate(-24.039755332698544 162.48014470340198 166.43196497267485)" opacity="0.4"/><rect x="187.0119333321369" y="180.73878066128626" width="8" height="8" fill="#282828" transform="rotate(23.214339220742858 191.0119333321369 184.73878066128626)" opacity="0.4"/><rect x="161.0143531342043" y="197.50379026864448" width="8" height="8" fill="#282828" transform="rotate(-9.691201969385993 165.0143531342043 201.50379026864448)" opacity="0.4"/><rect x="155.30707838876356" y="106.57777960554012" width="8" height="8" fill="#282828" transform="rotate(-19.958631643223924 159.30707838876356 110.57777960554012)" opacity="0.4"/><rect x="171.21287485768397" y="130.19259062685705" width="8" height="8" fill="#282828" transform="rotate(-0.190926554217981 175.21287485768397 134.19259062685705)" opacity="0.4"/><rect x="185.24085581525182" y="177.7608467730148" width="8" height="8" fill="#282828" transform="rotate(0.5429694354456593 189.24085581525182 181.7608467730148)" opacity="0.4"/><rect x="205.3355132283155" y="123.3153572456986" width="8" height="8" fill="#282828" transform="rotate(1.8833834507557583 209.3355132283155 127.3153572456986)" opacity="0.4"/><rect x="210.2052905653577" y="157.0635545832715" width="8" height="8" fill="#282828" transform="rotate(-24.126125176903624 214.2052905653577 161.0635545832715)" opacity="0.4"/><rect x="187.48070491034144" y="178.61764942742062" width="8" height="8" fill="#282828" transform="rotate(-10.14283104452793 191.48070491034144 182.61764942742062)" opacity="0.4"/><rect x="167.14014461145752" y="174.80537497624002" width="8" height="8" fill="#282828" transform="rotate(-5.040260116271327 171.14014461145752 178.80537497624002)" opacity="0.4"/><rect x="192.89392208887799" y="139.72145489245034" width="8" height="8" fill="#282828" transform="rotate(7.741184980544396 196.89392208887799 143.72145489245034)" opacity="0.4"/><rect x="175.2891880882476" y="220.05364883773206" width="8" height="8" fill="#282828" transform="rotate(24.172170023836756 179.2891880882476 224.05364883773206)" opacity="0.4"/><rect x="185.31510790918207" y="104.75835838950059" width="8" height="8" fill="#282828" transform="rotate(11.99108757039663 189.31510790918207 108.75835838950059)" opacity="0.4"/><rect x="230.84130791757622" y="124.8364385865784" width="8" height="8" fill="#282828" transform="rotate(-15.530889135551181 234.84130791757622 128.8364385865784)" opacity="0.4"/><rect x="144.6187933570532" y="161.92041481030944" width="8" height="8" fill="#282828" transform="rotate(-12.18183832303042 148.6187933570532 165.92041481030944)" opacity="0.4"/><rect x="202.42172488433522" y="148.55144995675562" width="8" height="8" fill="#282828" transform="rotate(5.275909135498587 206.42172488433522 152.55144995675562)" opacity="0.4"/><rect x="200.8836417372899" y="212.06678984772282" width="8" height="8" fill="#282828" transform="rotate(-9.547657738980035 204.8836417372899 216.06678984772282)" opacity="0.4"/><rect x="178.37930926275686" y="114.48238206124064" width="8" height="8" fill="#282828" transform="rotate(20.722003145660423 182.37930926275686 118.48238206124064)" opacity="0.4"/><rect x="187.79322213299824" y="136.5456707270592" width="8" height="8" fill="#282828" transform="rotate(-17.55944433999439 191.79322213299824 140.5456707270592)" opacity="0.4"/><rect x="174.42602330230812" y="110.6363961859248" width="8" height="8" fill="#282828" transform="rotate(-20.921101321346107 178.42602330230812 114.6363961859248)" opacity="0.4"/><rect x="219.4214666806788" y="132.7436789847907" width="8" height="8" fill="#282828" transform="rotate(-16.518662865568785 223.4214666806788 136.7436789847907)" opacity="0.4"/><rect x="192.7424712421493" y="179.41128867215906" width="8" height="8" fill="#282828" transform="rotate(-19.72832135270491 196.7424712421493 183.41128867215906)" opacity="0.4"/><rect x="225.26279432439762" y="205.27661211543654" width="8" height="8" fill="#282828" transform="rotate(13.934514340631367 229.26279432439762 209.27661211543654)" opacity="0.4"/><rect x="206.93482439000582" y="97.10404372491072" width="8" height="8" fill="#282828" transform="rotate(23.09430280860434 210.93482439000582 101.10404372491072)" opacity="0.4"/><rect x="159.16855301249456" y="164.3663780550468" width="8" height="8" fill="#282828" transform="rotate(-24.063678139705505 163.16855301249456 168.3663780550468)" opacity="0.4"/><rect x="170.6765625436249" y="153.65515338623482" width="8" height="8" fill="#282828" transform="rotate(-19.718355880220265 174.6765625436249 157.65515338623482)" opacity="0.4"/><rect x="258.25271972789864" y="121.90708656017341" width="8" height="8" fill="#282828" transform="rotate(-9.213506337647935 262.25271972789864 125.90708656017341)" opacity="0.4"/><rect x="174.09252138610466" y="179.92577219394818" width="8" height="8" fill="#282828" transform="rotate(-0.2589535005625301 178.09252138610466 183.92577219394818)" opacity="0.4"/><rect x="144.34883839416045" y="163.10630801682464" width="8" height="8" fill="#282828" transform="rotate(2.1027179968153007 148.34883839416045 167.10630801682464)" opacity="0.4"/><rect x="135.3579463673741" y="147.33592114488187" width="8" height="8" fill="#282828" transform="rotate(5.780855137128327 139.3579463673741 151.33592114488187)" opacity="0.4"/><rect x="197.5325084433059" y="110.05172260279002" width="8" height="8" fill="#282828" transform="rotate(22.435093449584457 201.5325084433059 114.05172260279002)" opacity="0.4"/><rect x="246.24704856514992" y="185.0911028005777" width="8" height="8" fill="#282828" transform="rotate(7.802355903035327 250.24704856514992 189.0911028005777)" opacity="0.4"/><rect x="183.6603478992969" y="102.73671132557197" width="8" height="8" fill="#282828" transform="rotate(26.02999292378542 187.6603478992969 106.73671132557197)" opacity="0.4"/><rect x="187.04771074988713" y="151.33042912640013" width="8" height="8" fill="#282828" transform="rotate(-4.550234245358304 191.04771074988713 155.33042912640013)" opacity="0.4"/><rect x="232.77872723125734" y="100.6553461521697" width="8" height="8" fill="#282828" transform="rotate(22.70457399584992 236.77872723125734 104.6553461521697)" opacity="0.4"/>
    <circle cx="200" cy="150" r="35" fill="#333" stroke="#222" stroke-width="2"/>
    <text x="200" y="155" text-anchor="middle" fill="#ff6b35" font-family="Orbitron, Arial, sans-serif" font-size="28" font-weight="bold" style="text-shadow: 0 0 10px #ff6b3544;">CF</text>
  </g>

  <rect x="0" y="258" width="400" height="42" fill="#0d0d15" opacity="0.95"/>
  <line x1="0" y1="258" x2="400" y2="258" stroke="#ff6b35" stroke-width="1" opacity="0.5"/>
  <text x="20" y="278" fill="#8d99ae" font-family="Arial, sans-serif" font-size="10" opacity="0.7">轮毂轮胎</text>
  <text x="380" y="278" fill="#8d99ae" font-family="Orbitron, Arial, sans-serif" font-size="10" text-anchor="end" opacity="0.7">XCF-180</text>
  <text x="200" y="283" text-anchor="middle" fill="#e2e2e2" font-family="Orbitron, Arial, sans-serif" font-size="12" font-weight="bold" letter-spacing="1">碳纤维轮毂盖</text>
  <text x="200" y="296" text-anchor="middle" fill="#ff6b35" font-family="Orbitron, Arial, sans-serif" font-size="8" opacity="0.8">WHEELS-003</text>
</svg>