<svg xmlns="http://www.w3.org/2000/svg" viewBox="0 0 400 300" width="400" height="300">
  
  <defs>
    <linearGradient id="bgGradwheels-001" x1="0%" y1="0%" x2="100%" y2="100%">
      <stop offset="0%" stop-color="#1a1a2e"/>
      <stop offset="100%" stop-color="#0f0f1a"/>
    </linearGradient>
    <linearGradient id="borderGradwheels-001" x1="0%" y1="0%" x2="100%" y2="0%">
      <stop offset="0%" stop-color="#ff6b35" stop-opacity="0.3"/>
      <stop offset="50%" stop-color="#ff6b35" stop-opacity="0.8"/>
      <stop offset="100%" stop-color="#ff6b35" stop-opacity="0.3"/>
    </linearGradient>
  </defs>

  <rect width="400" height="300" fill="url(#bgGradwheels-001)"/>
  <rect x="4" y="4" width="392" height="292" rx="8" ry="8" fill="none" stroke="url(#borderGradwheels-001)" stroke-width="2"/>

  <g transform="translate(0, -10)">
    <circle cx="200" cy="150" r="110" fill="#c8c8c8" stroke="#888" stroke-width="2"/>
              <circle cx="200" cy="150" r="90" fill="#1a1a2e"/>
    <circle cx="200" cy="150" r="85" fill="#a0a0a0" stroke="#666" stroke-width="2"/>
              <circle cx="200" cy="150" r="77" fill="#1a1a2e"/>
    <line x1="230" y1="150" x2="285" y2="150" stroke="#b0b0b0" stroke-width="6" stroke-linecap="round"/><line x1="218.70469405576202" y1="173.4549444740409" x2="252.99663315799236" y2="216.4556760097825" stroke="#b0b0b0" stroke-width="6" stroke-linecap="round"/><line x1="193.32437198131058" y1="179.2478373654547" x2="181.0857206137133" y2="232.868872535455" stroke="#b0b0b0" stroke-width="6" stroke-linecap="round"/><line x1="172.97093396292743" y1="163.01651217352673" x2="123.41764622829439" y2="186.88011782499245" stroke="#b0b0b0" stroke-width="6" stroke-linecap="round"/><line x1="172.9709339629274" y1="136.98348782647327" x2="123.41764622829436" y2="113.1198821750076" stroke="#b0b0b0" stroke-width="6" stroke-linecap="round"/><line x1="193.32437198131058" y1="120.75216263454529" x2="181.08572061371333" y2="67.13112746454499" stroke="#b0b0b0" stroke-width="6" stroke-linecap="round"/><line x1="218.704694055762" y1="126.5450555259591" x2="252.99663315799233" y2="83.54432399021746" stroke="#b0b0b0" stroke-width="6" stroke-linecap="round"/>
    <circle cx="200" cy="150" r="25" fill="#888" stroke="#555" stroke-width="2"/>
  </g>

  <rect x="0" y="258" width="400" height="42" fill="#0d0d15" opacity="0.95"/>
  <line x1="0" y1="258" x2="400" y2="258" stroke="#ff6b35" stroke-width="1" opacity="0.5"/>
  <text x="20" y="278" fill="#8d99ae" font-family="Arial, sans-serif" font-size="10" opacity="0.7">轮毂轮胎</text>
  <text x="380" y="278" fill="#8d99ae" font-family="Orbitron, Arial, sans-serif" font-size="10" text-anchor="end" opacity="0.7">XCF-180</text>
  <text x="200" y="283" text-anchor="middle" fill="#e2e2e2" font-family="Orbitron, Arial, sans-serif" font-size="12" font-weight="bold" letter-spacing="1">锻造铝合金前轮毂</text>
  <text x="200" y="296" text-anchor="middle" fill="#ff6b35" font-family="Orbitron, Arial, sans-serif" font-size="8" opacity="0.8">WHEELS-001</text>
</svg>